<?xml version="1.0" encoding="UTF-8" standalone="no"?>
<!DOCTYPE svg PUBLIC "-//W3C//DTD SVG 1.1//EN" "http://www.w3.org/Graphics/SVG/1.1/DTD/svg11.dtd">
<svg xmlns="http://www.w3.org/2000/svg" version="1.1" width="312.10699" height="55.959">
	<g fill="#cf1c23">
		<path d="m249 14.23c-2.453-2.089-5.042-3.651-7.771-4.698-2.729-1.042-5.599-1.563-8.604-1.563-5.823 0-10.557 1.87-14.208 5.604s-5.474 8.573-5.474 14.516c0 5.75 1.776 10.49 5.328 14.229 3.552 3.734 8.036 5.599 13.443 5.599 3.156 0 6.156-0.557 9.005-1.672s5.589-2.802 8.208-5.057v9.786c-2.328 1.672-4.865 2.927-7.604 3.75-2.745 0.823-5.714 1.234-8.917 1.234-4.073 0-7.844-0.667-11.297-2-3.458-1.333-6.495-3.297-9.115-5.896-2.594-2.547-4.594-5.547-5.984-9-1.396-3.458-2.094-7.141-2.094-11.047s0.698-7.573 2.094-11.005c1.391-3.432 3.411-6.448 6.057-9.042 2.646-2.62 5.677-4.604 9.094-5.948 3.422-1.348 7.12-2.02 11.099-2.02 3.13 0 6.115 0.453 8.953 1.365s5.589 2.286 8.26 4.13z"/>
		<path d="m168.76 8.626v45.917h-8.661v-45.918h-14.151v-7.349h36.896v7.349z"/>
		<path d="m99.734 54.543v-53.267h8.656v45.516h19.359v7.75z"/>
		<path d="m0 1.2715v53.271h8.1133v-23.906h4.9863c3.881 0 6.7354-0.20409 8.5684-0.62109 1.833-0.412 3.4262-1.0983 4.7852-2.0723 1.672-1.214 2.9797-2.8865 3.9277-5.0215 0.948-2.13 1.416-4.4634 1.416-6.9844s-0.46802-4.8326-1.416-6.9316c-0.948-2.099-2.2557-3.7639-3.9277-5.0039-1.359-0.969-2.9522-1.6678-4.7852-2.0898-1.834-0.427-4.6884-0.64062-8.5684-0.64062h-13.1zm8.6602 7.4277h2.2207c4.583 0 7.7275 0.57714 9.4355 1.7441 1.714 1.161 2.5684 3.1669 2.5684 6.0059 0 2.64-0.80139 4.4842-2.4004 5.5312-1.599 1.041-4.8015 1.5625-9.6035 1.5625h-2.2207v-14.844z"/>
		<path d="m63.561 0a28.48 27.94 0 0 0-28.48 27.939 28.48 27.94 0 0 0 28.48 27.939 28.48 27.94 0 0 0 28.479-27.939 28.48 27.94 0 0 0-28.479-27.939zm0 8.002a19.448 19.938 0 0 1 19.449 19.938 19.448 19.938 0 0 1-19.449 19.938 19.448 19.938 0 0 1-19.449-19.938 19.448 19.938 0 0 1 19.449-19.938z"/>
		<path d="m284.03 0a28.48 27.94 0 0 0-28.48 27.939 28.48 27.94 0 0 0 28.48 27.939 28.48 27.94 0 0 0 28.479-27.939 28.48 27.94 0 0 0-28.479-27.939zm0 8.002a19.448 19.938 0 0 1 19.449 19.938 19.448 19.938 0 0 1-19.449 19.938 19.448 19.938 0 0 1-19.449-19.938 19.448 19.938 0 0 1 19.449-19.938z"/>
		<rect x="132.68" y="1.277" width="8.661" height="53.266"/>
		<rect x="187.37" y="1.277" width="8.661" height="53.266"/>
	</g>
	</svg>
