<svg width="220" height="120" viewBox="0 0 220 120" fill="none" xmlns="http://www.w3.org/2000/svg">
<g clip-path="url(#clip0_3505_17076)">
<path fill-rule="evenodd" clip-rule="evenodd" d="M220 0H16L0 120L24 96H207L220 0ZM92.7316 67.0642C95.276 68.3548 98.2041 69 101.516 69C104.787 69 107.675 68.3743 110.179 67.1229C112.724 65.8715 114.682 64.1117 116.056 61.8436C117.469 59.5754 118.176 56.9944 118.176 54.1006V46.0642C118.176 45.7905 118.095 45.5754 117.934 45.419C117.772 45.2626 117.55 45.1844 117.267 45.1844H101.455C101.173 45.1844 100.951 45.2626 100.789 45.419C100.627 45.5754 100.547 45.7905 100.547 46.0642V53.1034C100.547 53.3771 100.627 53.5922 100.789 53.7486C100.951 53.905 101.173 53.9832 101.455 53.9832H106.787C106.989 53.9832 107.089 54.081 107.089 54.2765V55.0391C107.089 56.4469 106.605 57.5615 105.636 58.3827C104.707 59.1648 103.495 59.5559 102.001 59.5559C100.345 59.5559 98.9513 59.0279 97.8204 57.9721C96.73 56.9162 96.1847 55.5475 96.1847 53.8659V42.1341C96.1847 40.4134 96.6694 39.0447 97.6387 38.0279C98.608 36.9721 99.9004 36.4441 101.516 36.4441C103.172 36.4441 104.464 36.9134 105.393 37.852C106.362 38.7905 106.847 39.905 106.847 41.1955C106.847 41.5475 107.15 41.7235 107.756 41.7235H117.267C117.55 41.7235 117.772 41.6453 117.934 41.4888C118.095 41.3324 118.176 41.1173 118.176 40.8436V40.7849C118.176 38.2821 117.469 35.9749 116.056 33.8631C114.682 31.7514 112.724 30.0894 110.179 28.8771C107.635 27.6257 104.747 27 101.516 27C98.2041 27 95.276 27.6453 92.7316 28.9358C90.2275 30.2263 88.2687 32.0447 86.8551 34.3911C85.4819 36.6983 84.7953 39.3771 84.7953 42.4274V53.514C84.7953 56.5642 85.4819 59.2626 86.8551 61.6089C88.2687 63.9553 90.2275 65.7737 92.7316 67.0642ZM42.4193 68.3548C42.6212 68.4721 42.8434 68.5307 43.0857 68.5307H52.1124C52.6374 68.5307 52.9605 68.257 53.0817 67.7095L56.8983 47.5894C56.9387 47.4721 56.9993 47.4134 57.0801 47.4134C57.1609 47.4134 57.2215 47.4721 57.2618 47.5894L61.6237 67.7682C61.7449 68.2765 62.0882 68.5307 62.6536 68.5307H72.3467C72.8718 68.5307 73.1949 68.2765 73.316 67.7682L84.0996 28.4665C84.1804 28.1536 84.14 27.919 83.9784 27.7626C83.8573 27.567 83.6351 27.4693 83.312 27.4693H72.9525C72.4275 27.4693 72.1044 27.7235 71.9832 28.2318L67.4396 47.3547C67.3992 47.5112 67.3386 47.5894 67.2578 47.5894C67.1771 47.5894 67.1165 47.5112 67.0761 47.3547L62.5325 28.2318C62.4113 27.7235 62.0882 27.4693 61.5632 27.4693H52.7182C52.1528 27.4693 51.8095 27.7235 51.6883 28.2318L47.6293 47.3547C47.5889 47.5112 47.5284 47.5894 47.4476 47.5894C47.3668 47.5503 47.3062 47.4721 47.2658 47.3547L42.1164 28.2318C41.9952 27.7235 41.6721 27.4693 41.1471 27.4693H30.8481C30.2827 27.4693 30 27.7039 30 28.1732C30 28.2905 30.0202 28.3883 30.0606 28.4665L42.0558 67.7682C42.0962 68.0028 42.2173 68.1983 42.4193 68.3548ZM153.587 27.4693C153.87 27.4693 154.092 27.5475 154.253 27.7039C154.415 27.8603 154.496 28.0754 154.496 28.3492V36.0922C154.496 36.3659 154.415 36.581 154.253 36.7374C154.092 36.8939 153.87 36.9721 153.587 36.9721H143.409C143.207 36.9721 143.106 37.0698 143.106 37.2654V67.6508C143.106 67.9246 143.026 68.1397 142.864 68.2961C142.702 68.4525 142.48 68.5307 142.198 68.5307H132.626C132.343 68.5307 132.121 68.4525 131.959 68.2961C131.798 68.1397 131.717 67.9246 131.717 67.6508V37.2654C131.717 37.0698 131.616 36.9721 131.414 36.9721H121.539C121.256 36.9721 121.034 36.8939 120.873 36.7374C120.711 36.581 120.63 36.3659 120.63 36.0922V28.3492C120.63 28.0754 120.711 27.8603 120.873 27.7039C121.034 27.5475 121.256 27.4693 121.539 27.4693H153.587ZM164.495 67.1229C167.039 68.3743 169.968 69 173.279 69C176.591 69 179.499 68.4134 182.003 67.2402C184.548 66.0279 186.506 64.3464 187.88 62.1955C189.293 60.0447 190 57.5615 190 54.7458C190 54.3939 189.697 54.1983 189.091 54.1592L179.519 53.6899C179.237 53.6508 179.014 53.6899 178.853 53.8073C178.691 53.9246 178.611 54.1006 178.611 54.3352C178.611 55.8994 178.126 57.1704 177.157 58.148C176.187 59.0866 174.895 59.5559 173.279 59.5559C171.664 59.5559 170.371 59.0866 169.402 58.148C168.433 57.1704 167.948 55.8994 167.948 54.3352V41.7235C167.948 40.1201 168.433 38.8492 169.402 37.9106C170.371 36.933 171.664 36.4441 173.279 36.4441C174.895 36.4441 176.187 36.933 177.157 37.9106C178.126 38.8492 178.611 40.1201 178.611 41.7235C178.611 42.1536 178.853 42.3687 179.338 42.3687H179.519L189.091 41.7821C189.697 41.7039 190 41.4888 190 41.1369C190 38.3212 189.293 35.8575 187.88 33.7458C186.506 31.595 184.548 29.933 182.003 28.7598C179.499 27.5866 176.591 27 173.279 27C169.968 27 167.039 27.6257 164.495 28.8771C161.991 30.1285 160.032 31.8883 158.619 34.1564C157.245 36.4246 156.559 39.0447 156.559 42.0168V53.8659C156.559 56.8771 157.245 59.5363 158.619 61.8436C160.032 64.1117 161.991 65.8715 164.495 67.1229Z" fill="#FF5305"/>
</g>
<defs>
<clipPath id="clip0_3505_17076">
<rect width="220" height="120" fill="white"/>
</clipPath>
</defs>
</svg>
